<svg version="1.2" xmlns="http://www.w3.org/2000/svg" viewBox="0 0 24 24" width="24" height="24">
	<title>code-svgrepo-com-svg</title>
	<style>
		.s0 { fill: #6ff2a7 } 
		.s1 { fill: #52799c } 
	</style>
	<path id="Layer" class="s0" d="m15 5.3c0.1-0.6-0.2-1.1-0.7-1.3-0.6-0.1-1.1 0.2-1.3 0.7l-4 14c-0.1 0.6 0.2 1.1 0.7 1.3 0.6 0.1 1.1-0.2 1.3-0.7z"/>
	<path id="Layer" class="s1" d="m5.8 7.4c0.3 0.4 0.2 1.1-0.2 1.4l-3.2 2.4c-0.5 0.4-0.5 1.2 0 1.6l3.2 2.4c0.4 0.3 0.5 1 0.2 1.4-0.3 0.4-1 0.5-1.4 0.2l-3.2-2.4c-1.6-1.2-1.6-3.6 0-4.8l3.2-2.4c0.4-0.3 1.1-0.2 1.4 0.2z"/>
	<path id="Layer" class="s1" d="m18.2 16.6c-0.3-0.4-0.2-1.1 0.2-1.4l3.2-2.4c0.5-0.4 0.5-1.2 0-1.6l-3.2-2.4c-0.4-0.3-0.5-1-0.2-1.4 0.3-0.4 1-0.5 1.4-0.2l3.2 2.4c1.6 1.2 1.6 3.6 0 4.8l-3.2 2.4c-0.4 0.3-1.1 0.2-1.4-0.2z"/>
</svg>