<svg version="1.2" xmlns="http://www.w3.org/2000/svg" viewBox="0 0 508 466" width="508" height="466">
	<title>shape-3-svg</title>
	<style>
		.s0 { fill: #ebeaf0 } 
	</style>
	<path id="&lt;Path&gt;" class="s0" d="m469 107.4c-8.6-18.7-20.2-35.7-36-49-23.8-20.1-54.7-29.8-85.2-35.5-67.1-12.5-137.2-7.7-202.4 11.9-53.8 16.1-94.9 61.5-114.5 113.2-18 47.9-19.2 100.8-11.1 151.4 7.5 47.4 25.3 96.5 64.4 124.3 37.8 26.8 87.5 28.2 133.8 26.9 55.1-1.5 112.9-7.1 163.6-31.2 57.3-27.4 94.5-75.6 107.1-138 7.8-38.4 5.9-78.4-1.7-116.7-3.9-19.5-9.5-39.3-18-57.3z"/>
</svg>